<?xml version="1.0" standalone="no"?>
<!DOCTYPE svg PUBLIC "-//W3C//DTD SVG 20010904//EN"
 "http://www.w3.org/TR/2001/REC-SVG-20010904/DTD/svg10.dtd">
<svg version="1.0" xmlns="http://www.w3.org/2000/svg"
 width="558.000000pt" height="558.000000pt" viewBox="0 0 558.000000 558.000000"
 preserveAspectRatio="xMidYMid meet">
<metadata>
Created by potrace 1.14, written by Peter Selinger 2001-2017
</metadata>
<g transform="translate(0.000000,558.000000) scale(0.100000,-0.100000)"
fill="#000000" stroke="none">
<path d="M2588 5575 c-1 -2 -34 -6 -73 -9 -38 -3 -79 -8 -90 -10 -11 -2 -42
-7 -68 -10 -27 -4 -57 -9 -67 -11 -9 -2 -33 -6 -51 -9 -19 -3 -70 -15 -114
-26 -44 -12 -87 -22 -95 -24 -8 -2 -69 -22 -135 -44 -583 -195 -1100 -596
-1442 -1119 -40 -62 -73 -116 -73 -122 0 -5 -4 -11 -8 -13 -9 -3 -113 -208
-154 -303 -74 -170 -164 -489 -183 -646 -3 -24 -8 -53 -10 -64 -20 -96 -27
-528 -11 -665 6 -57 26 -185 41 -260 78 -411 279 -843 555 -1190 87 -110 300
-328 385 -395 28 -22 52 -42 55 -45 62 -62 312 -223 474 -305 164 -83 390
-173 506 -201 8 -2 44 -11 80 -19 95 -24 98 -25 185 -40 190 -33 275 -40 500
-40 234 0 375 14 594 59 257 54 563 174 804 315 43 25 85 51 95 56 53 31 229
161 317 235 70 59 296 292 358 370 148 186 289 418 377 620 23 52 45 104 51
115 19 42 79 234 103 330 62 247 81 411 81 695 0 211 -5 279 -35 452 -26 156
-27 159 -61 283 -158 565 -481 1055 -940 1427 -92 74 -280 208 -293 208 -2 0
-35 19 -72 42 -184 112 -552 257 -744 294 -14 3 -41 9 -60 14 -35 8 -192 34
-280 46 -48 6 -496 14 -502 9z"/>
</g>
</svg>
