<svg width="92" height="68" viewBox="0 0 92 68" fill="none" xmlns="http://www.w3.org/2000/svg">
<path d="M23.0832 50.6667C26.3471 50.6667 29.5241 51.0313 32.6144 51.7605C35.7047 52.4897 38.7776 53.5834 41.8332 55.0417V14.0001C38.9859 12.3334 35.9651 11.0834 32.7707 10.2501C29.5762 9.41675 26.3471 9.00008 23.0832 9.00008C20.5832 9.00008 18.1005 9.24314 15.6353 9.72925C13.17 10.2154 10.7915 10.9445 8.49984 11.9167V53.1667C10.9304 52.3334 13.3436 51.7084 15.7394 51.2917C18.1353 50.8751 20.5832 50.6667 23.0832 50.6667ZM50.1665 55.0417C53.2221 53.5834 56.295 52.4897 59.3853 51.7605C62.4755 51.0313 65.6526 50.6667 68.9165 50.6667C71.4165 50.6667 73.8644 50.8751 76.2603 51.2917C78.6561 51.7084 81.0693 52.3334 83.4998 53.1667V11.9167C81.2082 10.9445 78.8297 10.2154 76.3644 9.72925C73.8991 9.24314 71.4165 9.00008 68.9165 9.00008C65.6526 9.00008 62.4234 9.41675 59.229 10.2501C56.0346 11.0834 53.0137 12.3334 50.1665 14.0001V55.0417ZM45.9998 67.3334C42.6665 64.6945 39.0554 62.6459 35.1665 61.1876C31.2776 59.7292 27.2498 59.0001 23.0832 59.0001C20.1665 59.0001 17.3019 59.382 14.4894 60.1459C11.6769 60.9098 8.98595 61.9862 6.4165 63.3751C4.95817 64.139 3.55192 64.1042 2.19775 63.2709C0.843587 62.4376 0.166504 61.2223 0.166504 59.6251V9.41675C0.166504 8.65286 0.357476 7.92369 0.739421 7.22925C1.12137 6.5348 1.69428 6.01397 2.45817 5.66675C5.65261 4.00008 8.98595 2.75008 12.4582 1.91675C15.9304 1.08341 19.4721 0.666748 23.0832 0.666748C27.1109 0.666748 31.0519 1.18758 34.9061 2.22925C38.7603 3.27091 42.4582 4.83341 45.9998 6.91675C49.5415 4.83341 53.2394 3.27091 57.0936 2.22925C60.9478 1.18758 64.8887 0.666748 68.9165 0.666748C72.5276 0.666748 76.0693 1.08341 79.5415 1.91675C83.0137 2.75008 86.3471 4.00008 89.5415 5.66675C90.3054 6.01397 90.8783 6.5348 91.2603 7.22925C91.6422 7.92369 91.8332 8.65286 91.8332 9.41675V59.6251C91.8332 61.2223 91.1561 62.4376 89.8019 63.2709C88.4478 64.1042 87.0415 64.139 85.5832 63.3751C83.0137 61.9862 80.3228 60.9098 77.5103 60.1459C74.6978 59.382 71.8332 59.0001 68.9165 59.0001C64.7498 59.0001 60.7221 59.7292 56.8332 61.1876C52.9443 62.6459 49.3332 64.6945 45.9998 67.3334Z" fill="#AABEC9"/>
</svg>
