<svg width="119" height="118" viewBox="0 0 119 118" fill="none" xmlns="http://www.w3.org/2000/svg">
<path d="M59.5 118C92.0848 118 118.5 91.5848 118.5 59C118.5 26.4152 92.0848 0 59.5 0C26.9152 0 0.5 26.4152 0.5 59C0.5 91.5848 26.9152 118 59.5 118Z" fill="#287668"/>
<path d="M59.5 92.339H97M22 92.339H28.977C31.016 92.339 32.035 92.339 32.994 92.109C33.844 91.904 34.657 91.568 35.402 91.111C36.243 90.5955 36.964 89.8748 38.405 88.4336L90.75 36.0888C94.202 32.6371 94.202 27.0406 90.75 23.5888C87.298 20.1371 81.702 20.1371 78.25 23.5888L25.905 75.9336C24.464 77.3749 23.743 78.0955 23.228 78.9365C22.771 79.6821 22.434 80.4949 22.23 81.3452C22 82.3043 22 83.3234 22 85.3617V92.339Z" stroke="white" stroke-width="5" stroke-linecap="round" stroke-linejoin="round"/>
</svg>
