<svg width="92" height="68" viewBox="0 0 92 68" fill="none" xmlns="http://www.w3.org/2000/svg">
<path d="M0.166504 67.3334V50.6667C0.166504 48.3056 0.982476 46.3265 2.61442 44.7292C4.24637 43.132 6.20817 42.3334 8.49984 42.3334H22.1457C23.5346 42.3334 24.854 42.6806 26.104 43.3751C27.354 44.0695 28.3609 45.007 29.1248 46.1876C31.1387 48.8959 33.6214 51.014 36.5728 52.5417C39.5241 54.0695 42.6665 54.8334 45.9998 54.8334C49.4026 54.8334 52.5797 54.0695 55.5311 52.5417C58.4825 51.014 60.9304 48.8959 62.8748 46.1876C63.7776 45.007 64.8366 44.0695 66.0519 43.3751C67.2672 42.6806 68.5346 42.3334 69.854 42.3334H83.4998C85.8609 42.3334 87.8401 43.132 89.4373 44.7292C91.0346 46.3265 91.8332 48.3056 91.8332 50.6667V67.3334H62.6665V57.8542C60.2359 59.5904 57.6144 60.9098 54.8019 61.8126C51.9894 62.7154 49.0554 63.1667 45.9998 63.1667C43.0137 63.1667 40.0971 62.698 37.2498 61.7605C34.4026 60.823 31.7637 59.4862 29.3332 57.7501V67.3334H0.166504ZM45.9998 50.6667C43.3609 50.6667 40.8609 50.0591 38.4998 48.8438C36.1387 47.6286 34.1596 45.9445 32.5623 43.7917C31.3818 42.0556 29.9061 40.6841 28.1353 39.6772C26.3644 38.6702 24.4373 38.1667 22.354 38.1667C23.8818 35.5973 27.1109 33.5661 32.0415 32.073C36.9721 30.5799 41.6248 29.8334 45.9998 29.8334C50.3748 29.8334 55.0276 30.5799 59.9582 32.073C64.8887 33.5661 68.1179 35.5973 69.6457 38.1667C67.6318 38.1667 65.7221 38.6702 63.9165 39.6772C62.1109 40.6841 60.6179 42.0556 59.4373 43.7917C57.9096 46.014 55.9651 47.7154 53.604 48.8959C51.2429 50.0765 48.7082 50.6667 45.9998 50.6667ZM12.6665 38.1667C9.19428 38.1667 6.24289 36.9515 3.81234 34.5209C1.38178 32.0904 0.166504 29.139 0.166504 25.6667C0.166504 22.1251 1.38178 19.1563 3.81234 16.7605C6.24289 14.3647 9.19428 13.1667 12.6665 13.1667C16.2082 13.1667 19.1769 14.3647 21.5728 16.7605C23.9686 19.1563 25.1665 22.1251 25.1665 25.6667C25.1665 29.139 23.9686 32.0904 21.5728 34.5209C19.1769 36.9515 16.2082 38.1667 12.6665 38.1667ZM79.3332 38.1667C75.8609 38.1667 72.9096 36.9515 70.479 34.5209C68.0484 32.0904 66.8332 29.139 66.8332 25.6667C66.8332 22.1251 68.0484 19.1563 70.479 16.7605C72.9096 14.3647 75.8609 13.1667 79.3332 13.1667C82.8748 13.1667 85.8436 14.3647 88.2394 16.7605C90.6353 19.1563 91.8332 22.1251 91.8332 25.6667C91.8332 29.139 90.6353 32.0904 88.2394 34.5209C85.8436 36.9515 82.8748 38.1667 79.3332 38.1667ZM45.9998 25.6667C42.5276 25.6667 39.5762 24.4515 37.1457 22.0209C34.7151 19.5904 33.4998 16.639 33.4998 13.1667C33.4998 9.62508 34.7151 6.65633 37.1457 4.2605C39.5762 1.86466 42.5276 0.666748 45.9998 0.666748C49.5415 0.666748 52.5103 1.86466 54.9061 4.2605C57.3019 6.65633 58.4998 9.62508 58.4998 13.1667C58.4998 16.639 57.3019 19.5904 54.9061 22.0209C52.5103 24.4515 49.5415 25.6667 45.9998 25.6667Z" fill="#AABEC9"/>
</svg>
