<svg width="119" height="118" viewBox="0 0 119 118" fill="none" xmlns="http://www.w3.org/2000/svg">
<path d="M59.5 118C92.0848 118 118.5 91.5848 118.5 59C118.5 26.4152 92.0848 0 59.5 0C26.9152 0 0.5 26.4152 0.5 59C0.5 91.5848 26.9152 118 59.5 118Z" fill="#DFB549"/>
<path d="M58.667 17V21.1667M21.167 58.6667H17M31.583 31.5833L29.083 29.0829M85.75 31.5833L88.251 29.0829M100.333 58.6667H96.167M50.333 64.9167H67M58.667 64.9167V85.75M73.25 78.9748C79.559 74.4366 83.667 67.0314 83.667 58.6667C83.667 44.8595 72.474 33.6667 58.667 33.6667C44.86 33.6667 33.667 44.8595 33.667 58.6667C33.667 67.0314 37.775 74.4366 44.083 78.9748V87C44.083 91.667 44.083 94.001 44.992 95.783C45.791 97.351 47.065 98.626 48.633 99.425C50.416 100.333 52.75 100.333 57.417 100.333H59.917C64.584 100.333 66.917 100.333 68.7 99.425C70.268 98.626 71.543 97.351 72.342 95.783C73.25 94.001 73.25 91.667 73.25 87V78.9748Z" stroke="white" stroke-width="5" stroke-linecap="round" stroke-linejoin="round"/>
</svg>
