<svg width="118" height="118" viewBox="0 0 118 118" fill="none" xmlns="http://www.w3.org/2000/svg">
<path d="M59 118C91.5848 118 118 91.5848 118 59C118 26.4152 91.5848 0 59 0C26.4152 0 0 26.4152 0 59C0 91.5848 26.4152 118 59 118Z" fill="#A94B3E"/>
<path d="M94.666 63.1443C93.508 74.0189 87.347 84.2094 77.151 90.0959C60.211 99.876 38.551 94.072 28.771 77.1325L27.729 75.3283M24.221 55.7025C25.378 44.8279 31.54 34.6374 41.736 28.7508C58.675 18.9708 80.336 24.7747 90.116 41.7142L91.157 43.5185M24 84.6985L27.05 73.315L38.434 76.3652M80.455 42.4816L91.839 45.5319L94.889 34.1483" stroke="white" stroke-width="6" stroke-linecap="round" stroke-linejoin="round"/>
</svg>
