<svg width="699" height="78" viewBox="0 0 699 78" fill="none" xmlns="http://www.w3.org/2000/svg">
<g clip-path="url(#clip0_138_6)">
<path d="M1.681 58.5V1.77273H24.4022C28.577 1.77273 32.0591 2.39133 34.8486 3.62856C37.6377 4.86577 39.7344 6.5831 41.1383 8.78052C42.5421 10.9595 43.244 13.4709 43.244 16.3146C43.244 18.5305 42.8009 20.4787 41.914 22.1591C41.0274 23.821 39.8082 25.1875 38.2564 26.2585C36.7235 27.3111 34.9685 28.0589 32.9918 28.5021V29.0561C35.1532 29.1484 37.1761 29.7578 39.0601 30.8842C40.9627 32.0106 42.5054 33.5894 43.6875 35.6207C44.8696 37.6334 45.461 40.0341 45.461 42.8223C45.461 45.8325 44.7126 48.5193 43.2164 50.8827C41.7388 53.2279 39.5497 55.0839 36.6494 56.4502C33.7493 57.8169 30.1749 58.5 25.9262 58.5H1.681ZM13.6789 48.6947H23.4601C26.8036 48.6947 29.242 48.0574 30.7752 46.7834C32.3084 45.4909 33.0751 43.7733 33.0751 41.6315C33.0751 40.0618 32.6963 38.677 31.939 37.4764C31.1816 36.2762 30.101 35.3346 28.697 34.6512C27.3116 33.968 25.6583 33.6264 23.7372 33.6264H13.6789V48.6947ZM13.6789 25.5106H22.5734C24.2175 25.5106 25.6768 25.2244 26.9514 24.652C28.2445 24.0611 29.2605 23.2301 29.9994 22.1591C30.7568 21.0881 31.1354 19.8047 31.1354 18.3089C31.1354 16.2592 30.4058 14.6065 28.9464 13.3508C27.5056 12.0952 25.4551 11.4673 22.7951 11.4673H13.6789V25.5106ZM72.4424 59.331C68.0644 59.331 64.296 58.4447 61.1371 56.6719C57.9968 54.8808 55.577 52.351 53.8773 49.0825C52.1779 45.7954 51.3281 41.9084 51.3281 37.4212C51.3281 33.0447 52.1779 29.2039 53.8773 25.8984C55.577 22.593 57.9692 20.017 61.0539 18.1705C64.1575 16.3239 67.7965 15.4006 71.9713 15.4006C74.779 15.4006 77.393 15.853 79.8128 16.7578C82.2512 17.6442 84.3755 18.983 86.1857 20.7742C88.0145 22.5653 89.4369 24.8182 90.4529 27.5327C91.4689 30.2287 91.977 33.3863 91.977 37.0058V40.2464H56.0387V32.9339H80.8658C80.8658 31.2351 80.4962 29.7301 79.7575 28.419C79.0185 27.108 77.9931 26.0831 76.6816 25.3445C75.3886 24.5874 73.883 24.2088 72.1651 24.2088C70.3734 24.2088 68.7849 24.6243 67.3992 25.4553C66.0324 26.2678 64.9608 27.3665 64.1851 28.7514C63.4094 30.1179 63.0121 31.6413 62.9936 33.3216V40.274C62.9936 42.3794 63.3814 44.1981 64.1575 45.7308C64.9517 47.2635 66.0692 48.4451 67.5101 49.2762C68.951 50.1072 70.6598 50.5229 72.6362 50.5229C73.9477 50.5229 75.1484 50.338 76.2385 49.9688C77.3283 49.5995 78.261 49.0454 79.0371 48.3067C79.8128 47.5683 80.4039 46.6635 80.8103 45.5923L91.7277 46.3125C91.1733 48.9346 90.0374 51.2245 88.3195 53.1817C86.6201 55.1206 84.4216 56.6348 81.7248 57.7246C79.0462 58.7954 75.952 59.331 72.4424 59.331ZM111.484 33.9033V58.5H99.68V15.9545H110.93V23.4609H111.428C112.371 20.9865 113.95 19.0291 116.167 17.5888C118.383 16.13 121.071 15.4006 124.23 15.4006C127.185 15.4006 129.762 16.0469 131.961 17.3395C134.159 18.6321 135.868 20.4787 137.087 22.8793C138.306 25.2614 138.916 28.1051 138.916 31.4105V58.5H127.112V33.5156C127.13 30.9119 126.465 28.8807 125.117 27.4219C123.768 25.9446 121.912 25.206 119.547 25.206C117.959 25.206 116.555 25.5476 115.335 26.2308C114.135 26.9141 113.193 27.9112 112.509 29.2223C111.844 30.5149 111.503 32.0753 111.484 33.9033ZM166.5 58.5V1.77273H178.498V48.6116H202.826V58.5H166.5ZM229.78 59.331C225.476 59.331 221.753 58.4168 218.613 56.5887C215.491 54.742 213.081 52.1755 211.381 48.8884C209.681 45.5832 208.832 41.7515 208.832 37.3935C208.832 32.9986 209.681 29.1577 211.381 25.8707C213.081 22.5653 215.491 19.9986 218.613 18.1705C221.753 16.3239 225.476 15.4006 229.78 15.4006C234.084 15.4006 237.797 16.3239 240.919 18.1705C244.059 19.9986 246.479 22.5653 248.178 25.8707C249.878 29.1577 250.727 32.9986 250.727 37.3935C250.727 41.7515 249.878 45.5832 248.178 48.8884C246.479 52.1755 244.059 54.742 240.919 56.5887C237.797 58.4168 234.084 59.331 229.78 59.331ZM229.835 50.1904C231.793 50.1904 233.428 49.6363 234.739 48.5283C236.051 47.4019 237.039 45.8692 237.704 43.9303C238.388 41.9916 238.73 39.7849 238.73 37.3103C238.73 34.8361 238.388 32.6294 237.704 30.6903C237.039 28.7514 236.051 27.2187 234.739 26.0923C233.428 24.9659 231.793 24.4027 229.835 24.4027C227.858 24.4027 226.196 24.9659 224.848 26.0923C223.517 27.2187 222.511 28.7514 221.827 30.6903C221.162 32.6294 220.83 34.8361 220.83 37.3103C220.83 39.7849 221.162 41.9916 221.827 43.9303C222.511 45.8692 223.517 47.4019 224.848 48.5283C226.196 49.6363 227.858 50.1904 229.835 50.1904ZM277.577 75.3409C273.753 75.3409 270.475 74.8147 267.741 73.762C265.025 72.7278 262.864 71.3154 261.257 69.524C259.65 67.7329 258.606 65.7202 258.126 63.4858L269.043 62.0178C269.375 62.8673 269.902 63.6613 270.622 64.3997C271.343 65.1384 272.294 65.7293 273.476 66.1726C274.677 66.6341 276.137 66.8652 277.854 66.8652C280.422 66.8652 282.537 66.2373 284.2 64.9815C285.881 63.7442 286.721 61.6668 286.721 58.7493V50.9658H286.222C285.705 52.1479 284.929 53.2649 283.895 54.3176C282.86 55.3699 281.531 56.2286 279.905 56.8935C278.279 57.5581 276.34 57.8906 274.086 57.8906C270.89 57.8906 267.981 57.1519 265.358 55.6748C262.753 54.1791 260.675 51.8983 259.123 48.8332C257.59 45.7493 256.823 41.8528 256.823 37.1442C256.823 32.3246 257.608 28.299 259.179 25.0675C260.749 21.8359 262.836 19.4169 265.441 17.8104C268.064 16.2039 270.936 15.4006 274.058 15.4006C276.441 15.4006 278.436 15.8068 280.043 16.6193C281.651 17.4133 282.943 18.4105 283.922 19.6108C284.92 20.7926 285.687 21.956 286.222 23.1008H286.666V15.9545H298.387V58.9153C298.387 62.5349 297.5 65.5632 295.726 68.0007C293.953 70.4382 291.496 72.2663 288.356 73.4851C285.234 74.7224 281.641 75.3409 277.577 75.3409ZM277.826 49.0269C279.729 49.0269 281.336 48.556 282.648 47.6145C283.978 46.6541 284.994 45.2878 285.696 43.5149C286.416 41.7238 286.777 39.5817 286.777 37.0887C286.777 34.5959 286.425 32.4354 285.724 30.6072C285.022 28.7606 284.006 27.3295 282.676 26.3139C281.346 25.2983 279.729 24.7905 277.826 24.7905C275.887 24.7905 274.252 25.3168 272.922 26.3693C271.592 27.4034 270.585 28.8438 269.902 30.6903C269.218 32.5371 268.877 34.6697 268.877 37.0887C268.877 39.5447 269.218 41.6683 269.902 43.4597C270.604 45.2322 271.611 46.6079 272.922 47.5865C274.252 48.5469 275.887 49.0269 277.826 49.0269ZM319.916 59.3034C317.201 59.3034 314.781 58.8325 312.657 57.8906C310.532 56.9302 308.851 55.5178 307.614 53.6526C306.394 51.7692 305.785 49.424 305.785 46.6173C305.785 44.2536 306.219 42.2685 307.087 40.6621C307.955 39.0553 309.137 37.7627 310.634 36.7842C312.13 35.8053 313.83 35.0669 315.732 34.5683C317.653 34.0698 319.667 33.7188 321.773 33.5156C324.248 33.2573 326.244 33.0171 327.756 32.7954C329.271 32.5553 330.37 32.2045 331.056 31.7429C331.739 31.2812 332.08 30.598 332.08 29.6932V29.527C332.08 27.7727 331.528 26.4155 330.419 25.4553C329.327 24.495 327.776 24.0149 325.763 24.0149C323.639 24.0149 321.948 24.4858 320.692 25.4275C319.436 26.3508 318.605 27.5142 318.198 28.9176L307.281 28.0312C307.835 25.446 308.925 23.2117 310.551 21.3281C312.176 19.4261 314.273 17.9673 316.84 16.9517C319.427 15.9176 322.419 15.4006 325.819 15.4006C328.182 15.4006 330.445 15.6775 332.607 16.2315C334.785 16.7855 336.716 17.6442 338.397 18.8075C340.098 19.9709 341.437 21.4666 342.416 23.2947C343.394 25.1044 343.885 27.2742 343.885 29.804V58.5H332.691V52.6003H332.357C331.674 53.9299 330.76 55.1021 329.616 56.1178C328.468 57.1152 327.093 57.8997 325.487 58.4724C323.879 59.0262 322.022 59.3034 319.916 59.3034ZM323.297 51.1599C325.033 51.1599 326.566 50.8183 327.896 50.1348C329.226 49.4331 330.269 48.4916 331.027 47.3096C331.784 46.1279 332.165 44.7889 332.165 43.2933V38.7783C331.794 39.0185 331.287 39.2402 330.64 39.4433C330.013 39.6279 329.301 39.8034 328.507 39.9695C327.711 40.117 326.917 40.2558 326.124 40.3848C325.328 40.4956 324.608 40.5974 323.962 40.6897C322.576 40.8928 321.366 41.2159 320.332 41.6592C319.297 42.1021 318.494 42.7024 317.921 43.4597C317.349 44.1981 317.062 45.1214 317.062 46.2293C317.062 47.8361 317.644 49.0639 318.808 49.9135C319.99 50.7442 321.486 51.1599 323.297 51.1599ZM364.845 33.9033V58.5H353.041V15.9545H364.293V23.4609H364.79C365.733 20.9865 367.313 19.0291 369.53 17.5888C371.744 16.13 374.433 15.4006 377.593 15.4006C380.549 15.4006 383.124 16.0469 385.321 17.3395C387.522 18.6321 389.229 20.4787 390.448 22.8793C391.668 25.2614 392.279 28.1051 392.279 31.4105V58.5H380.474V33.5156C380.493 30.9119 379.827 28.8807 378.478 27.4219C377.132 25.9446 375.275 25.206 372.908 25.206C371.322 25.206 369.917 25.5476 368.698 26.2308C367.498 26.9141 366.556 27.9112 365.873 29.2223C365.206 30.5149 364.865 32.0753 364.845 33.9033ZM421.803 58.5V1.77273H440.975C445.429 1.77273 449.067 2.57599 451.892 4.18252C454.737 5.7706 456.844 7.92188 458.212 10.6364C459.578 13.3508 460.261 16.3793 460.261 19.7216C460.261 23.0639 459.578 26.1016 458.212 28.8345C456.863 31.5675 454.776 33.7464 451.947 35.3714C449.122 36.9779 445.5 37.7812 441.085 37.7812H427.343V31.6875H440.864C443.914 31.6875 446.362 31.1612 448.209 30.1087C450.055 29.0561 451.395 27.6342 452.227 25.843C453.076 24.0334 453.501 21.9929 453.501 19.7216C453.501 17.4503 453.076 15.419 452.227 13.6278C451.395 11.8367 450.045 10.4332 448.179 9.41762C446.313 8.38354 443.839 7.86646 440.754 7.86646H428.672V58.5H421.803ZM487.278 59.3863C483.435 59.3863 480.063 58.4724 477.163 56.6443C474.283 54.8161 472.03 52.2584 470.404 48.9717C468.795 45.6846 467.992 41.8438 467.992 37.4488C467.992 33.0171 468.795 29.1484 470.404 25.843C472.03 22.5376 474.283 19.9709 477.163 18.1428C480.063 16.3146 483.435 15.4006 487.278 15.4006C491.121 15.4006 494.482 16.3146 497.363 18.1428C500.263 19.9709 502.516 22.5376 504.125 25.843C505.751 29.1484 506.564 33.0171 506.564 37.4488C506.564 41.8438 505.751 45.6846 504.125 48.9717C502.516 52.2584 500.263 54.8161 497.363 56.6443C494.482 58.4724 491.121 59.3863 487.278 59.3863ZM487.278 53.5142C490.197 53.5142 492.597 52.7664 494.482 51.2707C496.365 49.7747 497.76 47.8082 498.667 45.3707C499.57 42.9332 500.022 40.2925 500.022 37.4488C500.022 34.605 499.57 31.9553 498.667 29.4993C497.76 27.0433 496.365 25.0582 494.482 23.544C492.597 22.0298 490.197 21.2727 487.278 21.2727C484.358 21.2727 481.956 22.0298 480.073 23.544C478.188 25.0582 476.793 27.0433 475.889 29.4993C474.985 31.9553 474.53 34.605 474.53 37.4488C474.53 40.2925 474.985 42.9332 475.889 45.3707C476.793 47.8082 478.188 49.7747 480.073 51.2707C481.956 52.7664 484.358 53.5142 487.278 53.5142ZM516.545 58.5V15.9545H522.862V22.3807H523.307C524.081 20.2756 525.485 18.5675 527.517 17.2564C529.549 15.9453 531.841 15.2898 534.39 15.2898C534.868 15.2898 535.47 15.299 536.192 15.3175C536.91 15.3359 537.456 15.3636 537.824 15.4006V22.0483C537.603 21.9929 537.095 21.9098 536.302 21.799C535.525 21.6697 534.702 21.6051 533.834 21.6051C531.767 21.6051 529.92 22.0391 528.294 22.907C526.685 23.7564 525.411 24.9382 524.468 26.4524C523.545 27.9481 523.083 29.6562 523.083 31.5767V58.5H516.545ZM566.752 15.9545V21.4943H544.697V15.9545H566.752ZM551.124 5.76137H557.665V46.3125C557.665 48.1591 557.932 49.544 558.468 50.4673C559.021 51.3721 559.723 51.9815 560.575 52.2954C561.443 52.5909 562.357 52.7387 563.316 52.7387C564.038 52.7387 564.629 52.7017 565.091 52.6279C565.553 52.5356 565.92 52.4615 566.2 52.4062L567.529 58.2784C567.084 58.4448 566.466 58.6108 565.673 58.7769C564.877 58.9615 563.872 59.0541 562.653 59.0541C560.806 59.0541 558.995 58.657 557.22 57.863C555.468 57.069 554.008 55.8594 552.844 54.2344C551.696 52.6094 551.124 50.5596 551.124 48.0854V5.76137ZM593.422 59.3863C589.579 59.3863 586.211 58.4724 583.307 56.6443C580.427 54.8161 578.174 52.2584 576.548 48.9717C574.942 45.6846 574.136 41.8438 574.136 37.4488C574.136 33.0171 574.942 29.1484 576.548 25.843C578.174 22.5376 580.427 19.9709 583.307 18.1428C586.211 16.3146 589.579 15.4006 593.422 15.4006C597.265 15.4006 600.626 16.3146 603.51 18.1428C606.41 19.9709 608.663 22.5376 610.269 25.843C611.895 29.1484 612.708 33.0171 612.708 37.4488C612.708 41.8438 611.895 45.6846 610.269 48.9717C608.663 52.2584 606.41 54.8161 603.51 56.6443C600.626 58.4724 597.265 59.3863 593.422 59.3863ZM593.422 53.5142C596.341 53.5142 598.744 52.7664 600.626 51.2707C602.512 49.7747 603.907 47.8082 604.811 45.3707C605.718 42.9332 606.17 40.2925 606.17 37.4488C606.17 34.605 605.718 31.9553 604.811 29.4993C603.907 27.0433 602.512 25.0582 600.626 23.544C598.744 22.0298 596.341 21.2727 593.422 21.2727C590.505 21.2727 588.103 22.0298 586.217 23.544C584.335 25.0582 582.94 27.0433 582.033 29.4993C581.129 31.9553 580.677 34.605 580.677 37.4488C580.677 40.2925 581.129 42.9332 582.033 45.3707C582.94 47.8082 584.335 49.7747 586.217 51.2707C588.103 52.7664 590.505 53.5142 593.422 53.5142ZM629.23 1.77273V58.5H622.689V1.77273H629.23ZM641.207 58.5V15.9545H647.745V58.5H641.207ZM644.53 8.86363C643.256 8.86363 642.157 8.42969 641.233 7.56177C640.329 6.69389 639.878 5.65058 639.878 4.43183C639.878 3.21307 640.329 2.16975 641.233 1.30185C642.157 0.43395 643.256 0 644.53 0C645.804 0 646.897 0.43395 647.801 1.30185C648.724 2.16975 649.186 3.21307 649.186 4.43183C649.186 5.65058 648.724 6.69389 647.801 7.56177C646.897 8.42969 645.804 8.86363 644.53 8.86363ZM677.012 59.3863C673.17 59.3863 669.798 58.4724 666.898 56.6443C664.018 54.8161 661.764 52.2584 660.139 48.9717C658.533 45.6846 657.726 41.8438 657.726 37.4488C657.726 33.0171 658.533 29.1484 660.139 25.843C661.764 22.5376 664.018 19.9709 666.898 18.1428C669.798 16.3146 673.17 15.4006 677.012 15.4006C680.855 15.4006 684.217 16.3146 687.098 18.1428C690.001 19.9709 692.254 22.5376 693.86 25.843C695.486 29.1484 696.298 33.0171 696.298 37.4488C696.298 41.8438 695.486 45.6846 693.86 48.9717C692.254 52.2584 690.001 54.8161 687.098 56.6443C684.217 58.4724 680.855 59.3863 677.012 59.3863ZM677.012 53.5142C679.932 53.5142 682.335 52.7664 684.217 51.2707C686.103 49.7747 687.497 47.8082 688.401 45.3707C689.305 42.9332 689.76 40.2925 689.76 37.4488C689.76 34.605 689.305 31.9553 688.401 29.4993C687.497 27.0433 686.103 25.0582 684.217 23.544C682.335 22.0298 679.932 21.2727 677.012 21.2727C674.093 21.2727 671.693 22.0298 669.808 23.544C667.925 25.0582 666.531 27.0433 665.624 29.4993C664.72 31.9553 664.268 34.605 664.268 37.4488C664.268 40.2925 664.72 42.9332 665.624 45.3707C666.531 47.8082 667.925 49.7747 669.808 51.2707C671.693 52.7664 674.093 53.5142 677.012 53.5142Z" fill="white"/>
</g>
<defs>
<clipPath id="clip0_138_6">
<rect width="699" height="78" fill="white"/>
</clipPath>
</defs>
</svg>
