<svg width="119" height="118" viewBox="0 0 119 118" fill="none" xmlns="http://www.w3.org/2000/svg">
<path d="M59.5 118C92.0848 118 118.5 91.5848 118.5 59C118.5 26.4152 92.0848 0 59.5 0C26.9152 0 0.5 26.4152 0.5 59C0.5 91.5848 26.9152 118 59.5 118Z" fill="#762865"/>
<mask id="mask0_143_22" style="mask-type:alpha" maskUnits="userSpaceOnUse" x="9" y="9" width="100" height="100">
<path d="M9 9H109V109H9V9Z" fill="#D9D9D9"/>
</mask>
<g mask="url(#mask0_143_22)">
<path d="M83.9999 100.667V82.75C87.9579 79.1389 91.0309 74.9202 93.2189 70.0938C95.4059 65.2674 96.4999 60.1806 96.4999 54.8334C96.4999 44.4167 92.8539 35.5625 85.5629 28.2709C78.2709 20.9792 69.4169 17.3334 58.9999 17.3334C50.3189 17.3334 42.6279 19.8855 35.9269 24.9896C29.2259 30.0938 24.8679 36.7431 22.8539 44.9375L17.4379 66.2917C17.0899 67.6112 17.3329 68.8091 18.1669 69.8855C18.9999 70.9619 20.1109 71.5 21.4999 71.5H29.8329V84C29.8329 86.2917 30.6489 88.2535 32.2809 89.8855C33.9129 91.517 35.8749 92.333 38.1669 92.333H46.4999V100.667H54.8329V84H38.1669V63.1667H26.9169L30.8749 47.0209C32.4719 40.7014 35.8749 35.5625 41.0829 31.6042C46.2919 27.6459 52.2639 25.6667 58.9999 25.6667C67.0559 25.6667 73.9309 28.4792 79.6249 34.1042C85.3189 39.7292 88.1669 46.5695 88.1669 54.625C88.1669 58.7917 87.3159 62.75 85.6149 66.5C83.9129 70.25 81.4999 73.5834 78.3749 76.5L75.6669 79V100.667H83.9999ZM63.1669 71.5H54.8329L54.2079 66.2917C53.6529 66.0834 53.1489 65.8403 52.6979 65.5625C52.2469 65.2848 51.8469 64.9723 51.4999 64.625L46.7079 66.7084L42.5419 59.625L46.7079 56.5C46.5689 55.9445 46.4999 55.3889 46.4999 54.8334C46.4999 54.2778 46.5689 53.7223 46.7079 53.1667L42.5419 50.0417L46.7079 42.9584L51.4999 45.0417C51.8469 44.6945 52.2469 44.382 52.6979 44.1042C53.1489 43.8264 53.6529 43.5834 54.2079 43.375L54.8329 38.1667H63.1669L63.7919 43.375C64.3469 43.5834 64.8509 43.8264 65.3019 44.1042C65.7529 44.382 66.1529 44.6945 66.4999 45.0417L71.2919 42.9584L75.4579 50.0417L71.2919 53.1667C71.4309 53.7223 71.4999 54.2778 71.4999 54.8334C71.4999 55.3889 71.4309 55.9445 71.2919 56.5L75.4579 59.625L71.2919 66.7084L66.4999 64.625C66.1529 64.9723 65.7529 65.2848 65.3019 65.5625C64.8509 65.8403 64.3469 66.0834 63.7919 66.2917L63.1669 71.5ZM58.9999 61.0834C60.7359 61.0834 62.2119 60.4757 63.4269 59.2605C64.6419 58.0452 65.2499 56.5695 65.2499 54.8334C65.2499 53.0973 64.6419 51.6216 63.4269 50.4063C62.2119 49.191 60.7359 48.5834 58.9999 48.5834C57.2639 48.5834 55.7879 49.191 54.5729 50.4063C53.3579 51.6216 52.7499 53.0973 52.7499 54.8334C52.7499 56.5695 53.3579 58.0452 54.5729 59.2605C55.7879 60.4757 57.2639 61.0834 58.9999 61.0834Z" fill="white"/>
</g>
</svg>
