<svg width="118" height="118" viewBox="0 0 118 118" fill="none" xmlns="http://www.w3.org/2000/svg">
<path d="M59 118C91.5848 118 118 91.5848 118 59C118 26.4152 91.5848 0 59 0C26.4152 0 0 26.4152 0 59C0 91.5848 26.4152 118 59 118Z" fill="#6880D5"/>
<path d="M59 94C50.0556 94 42.2616 91.0347 35.6181 85.1042C28.9745 79.1736 25.1667 71.7685 24.1944 62.8889H32.1667C33.0741 69.6296 36.0718 75.2037 41.1597 79.6111C46.2477 84.0185 52.1944 86.2222 59 86.2222C66.5833 86.2222 73.0162 83.581 78.2986 78.2986C83.581 73.0162 86.2222 66.5833 86.2222 59C86.2222 51.4167 83.581 44.9838 78.2986 39.7014C73.0162 34.419 66.5833 31.7778 59 31.7778C54.5278 31.7778 50.3472 32.8148 46.4583 34.8889C42.5694 36.963 39.2963 39.8148 36.6389 43.4444H47.3333V51.2222H24V27.8889H31.7778V37.0278C35.0833 32.8796 39.1181 29.6713 43.8819 27.4028C48.6458 25.1343 53.6852 24 59 24C63.8611 24 68.4144 24.9236 72.6597 26.7708C76.9051 28.6181 80.5995 31.1134 83.7431 34.2569C86.8866 37.4005 89.3819 41.0949 91.2292 45.3403C93.0764 49.5856 94 54.1389 94 59C94 63.8611 93.0764 68.4144 91.2292 72.6597C89.3819 76.9051 86.8866 80.5995 83.7431 83.7431C80.5995 86.8866 76.9051 89.3819 72.6597 91.2292C68.4144 93.0764 63.8611 94 59 94ZM69.8889 75.3333L55.1111 60.5556V39.5556H62.8889V57.4444L75.3333 69.8889L69.8889 75.3333Z" fill="white"/>
</svg>
