<svg width="76" height="76" viewBox="0 0 76 76" fill="none" xmlns="http://www.w3.org/2000/svg">
<path d="M69.6667 75.5L43.4167 49.25C41.3333 50.9167 38.9375 52.2361 36.2292 53.2083C33.5208 54.1806 30.6389 54.6667 27.5833 54.6667C20.0139 54.6667 13.6076 52.0451 8.36458 46.8021C3.12153 41.559 0.5 35.1528 0.5 27.5833C0.5 20.0139 3.12153 13.6076 8.36458 8.36458C13.6076 3.12153 20.0139 0.5 27.5833 0.5C35.1528 0.5 41.559 3.12153 46.8021 8.36458C52.0451 13.6076 54.6667 20.0139 54.6667 27.5833C54.6667 30.6389 54.1806 33.5208 53.2083 36.2292C52.2361 38.9375 50.9167 41.3333 49.25 43.4167L75.5 69.6667L69.6667 75.5ZM27.5833 46.3333C32.7917 46.3333 37.2187 44.5104 40.8646 40.8646C44.5104 37.2187 46.3333 32.7917 46.3333 27.5833C46.3333 22.375 44.5104 17.9479 40.8646 14.3021C37.2187 10.6562 32.7917 8.83333 27.5833 8.83333C22.375 8.83333 17.9479 10.6562 14.3021 14.3021C10.6562 17.9479 8.83333 22.375 8.83333 27.5833C8.83333 32.7917 10.6562 37.2187 14.3021 40.8646C17.9479 44.5104 22.375 46.3333 27.5833 46.3333Z" fill="#AABEC9"/>
</svg>
