<svg width="34" height="34" viewBox="0 0 34 34" fill="none" xmlns="http://www.w3.org/2000/svg">
<path d="M17.3337 33.3333C15.0281 33.3333 12.8614 32.8958 10.8337 32.0208C8.80588 31.1458 7.04199 29.9583 5.54199 28.4583C4.04199 26.9583 2.85449 25.1944 1.97949 23.1667C1.10449 21.1389 0.666992 18.9722 0.666992 16.6667C0.666992 14.3611 1.10449 12.1944 1.97949 10.1667C2.85449 8.13889 4.04199 6.375 5.54199 4.875C7.04199 3.375 8.80588 2.1875 10.8337 1.3125C12.8614 0.4375 15.0281 0 17.3337 0C19.6392 0 21.8059 0.4375 23.8337 1.3125C25.8614 2.1875 27.6253 3.375 29.1253 4.875C30.6253 6.375 31.8128 8.13889 32.6878 10.1667C33.5628 12.1944 34.0003 14.3611 34.0003 16.6667C34.0003 18.9722 33.5628 21.1389 32.6878 23.1667C31.8128 25.1944 30.6253 26.9583 29.1253 28.4583C27.6253 29.9583 25.8614 31.1458 23.8337 32.0208C21.8059 32.8958 19.6392 33.3333 17.3337 33.3333ZM17.3337 30C21.0559 30 24.2087 28.7083 26.792 26.125C29.3753 23.5417 30.667 20.3889 30.667 16.6667C30.667 12.9444 29.3753 9.79167 26.792 7.20833C24.2087 4.625 21.0559 3.33333 17.3337 3.33333C13.6114 3.33333 10.4587 4.625 7.87533 7.20833C5.29199 9.79167 4.00033 12.9444 4.00033 16.6667C4.00033 20.3889 5.29199 23.5417 7.87533 26.125C10.4587 28.7083 13.6114 30 17.3337 30ZM17.3337 26.6667C14.5559 26.6667 12.1948 25.6944 10.2503 23.75C8.30588 21.8056 7.33366 19.4444 7.33366 16.6667C7.33366 13.8889 8.30588 11.5278 10.2503 9.58333C12.1948 7.63889 14.5559 6.66667 17.3337 6.66667C20.1114 6.66667 22.4725 7.63889 24.417 9.58333C26.3614 11.5278 27.3337 13.8889 27.3337 16.6667C27.3337 19.4444 26.3614 21.8056 24.417 23.75C22.4725 25.6944 20.1114 26.6667 17.3337 26.6667ZM17.3337 23.3333C19.167 23.3333 20.7364 22.6806 22.042 21.375C23.3475 20.0694 24.0003 18.5 24.0003 16.6667C24.0003 14.8333 23.3475 13.2639 22.042 11.9583C20.7364 10.6528 19.167 10 17.3337 10C15.5003 10 13.9309 10.6528 12.6253 11.9583C11.3198 13.2639 10.667 14.8333 10.667 16.6667C10.667 18.5 11.3198 20.0694 12.6253 21.375C13.9309 22.6806 15.5003 23.3333 17.3337 23.3333ZM17.3337 20C16.417 20 15.6323 19.6736 14.9795 19.0208C14.3267 18.3681 14.0003 17.5833 14.0003 16.6667C14.0003 15.75 14.3267 14.9653 14.9795 14.3125C15.6323 13.6597 16.417 13.3333 17.3337 13.3333C18.2503 13.3333 19.035 13.6597 19.6878 14.3125C20.3406 14.9653 20.667 15.75 20.667 16.6667C20.667 17.5833 20.3406 18.3681 19.6878 19.0208C19.035 19.6736 18.2503 20 17.3337 20Z" fill="#AABEC9"/>
</svg>
